<svg xmlns="http://www.w3.org/2000/svg" width="213" height="75" viewBox="0 0 213 75" fill="none"><rect x="43.5867" y="7.92725" width="1.29298" height="1.29298" fill="#022523"></rect><rect x="32.3679" y="65.04" width="1.29298" height="1.29298" transform="rotate(-180 32.3679 65.04)" fill="#022523"></rect><rect x="41.3289" y="8.89111" width="1.29298" height="1.29298" fill="#022523"></rect><rect x="34.6257" y="64.0762" width="1.29298" height="1.29298" transform="rotate(-180 34.6257 64.0762)" fill="#022523"></rect><path d="M90.9995 33.3895C90.6032 32.4781 89.9956 31.7648 89.1766 31.2496C88.3708 30.7212 87.4197 30.457 86.3233 30.457C85.2929 30.457 84.3683 30.6948 83.5493 31.1703C82.7303 31.6459 82.083 32.3262 81.6074 33.2112C81.1319 34.0831 80.8941 35.1002 80.8941 36.2627C80.8941 37.4251 81.1319 38.4489 81.6074 39.3339C82.083 40.219 82.7303 40.8993 83.5493 41.3748C84.3683 41.8504 85.2929 42.0881 86.3233 42.0881C87.2876 42.0881 88.1528 41.8834 88.919 41.4739C89.6984 41.0512 90.3192 40.4567 90.7816 39.6906C91.2571 38.9112 91.5279 38.0063 91.594 36.976H85.7685V35.8466H93.0602V36.8571C92.9942 38.0724 92.6639 39.1754 92.0695 40.1661C91.4751 41.1436 90.6759 41.9164 89.672 42.4844C88.6812 43.0524 87.565 43.3365 86.3233 43.3365C85.042 43.3365 83.8795 43.0392 82.8359 42.4448C81.7924 41.8372 80.9668 40.9983 80.3591 39.9284C79.7647 38.8452 79.4675 37.6233 79.4675 36.2627C79.4675 34.9021 79.7647 33.6868 80.3591 32.6168C80.9668 31.5336 81.7924 30.6948 82.8359 30.1003C83.8795 29.4927 85.042 29.1889 86.3233 29.1889C87.8028 29.1889 89.0973 29.5587 90.2069 30.2985C91.3166 31.0382 92.1224 32.0686 92.6243 33.3895H90.9995ZM106.043 43.1978L102.615 37.4119H100.059V43.1978H98.6722V29.3474H102.833C104.379 29.3474 105.548 29.7173 106.34 30.457C107.146 31.1967 107.549 32.1677 107.549 33.3697C107.549 34.3737 107.259 35.2323 106.677 35.9456C106.109 36.6457 105.264 37.1015 104.141 37.3128L107.708 43.1978H106.043ZM100.059 36.2825H102.853C103.936 36.2825 104.749 36.0183 105.29 35.4899C105.845 34.9615 106.123 34.2548 106.123 33.3697C106.123 32.4583 105.858 31.7582 105.33 31.2694C104.802 30.7674 103.969 30.5164 102.833 30.5164H100.059V36.2825ZM114.76 30.4768V35.6484H120.011V36.7977H114.76V42.0485H120.605V43.1978H113.373V29.3276H120.605V30.4768H114.76ZM127.797 30.4768V35.6484H133.047V36.7977H127.797V42.0485H133.642V43.1978H126.41V29.3276H133.642V30.4768H127.797ZM149.888 43.1978H148.501L140.833 31.5468V43.1978H139.446V29.3474H140.833L148.501 40.9785V29.3474H149.888V43.1978ZM163.591 29.3474V30.4966H157.488V35.6682H162.64V36.8175H157.488V43.1978H156.101V29.3474H163.591ZM170.331 30.4768V35.6484H175.582V36.7977H170.331V42.0485H176.177V43.1978H168.944V29.3276H176.177V30.4768H170.331ZM183.368 30.4768V35.6484H188.619V36.7977H183.368V42.0485H189.213V43.1978H181.981V29.3276H189.213V30.4768H183.368ZM203.122 29.3474V30.4966H199.278V43.1978H197.891V30.4966H194.027V29.3474H203.122Z" fill="#022523"></path><circle cx="37.8715" cy="36.2819" r="14.3649" stroke="#022523" stroke-width="1.29298"></circle><path d="M32.5918 14.6351C32.5833 14.6301 32.5832 14.6302 32.0961 15.4739C31.9447 15.7472 32.112 15.483 32.6175 14.6499C32.6856 14.5407 32.6887 14.5425 32.729 14.4808C32.6703 14.5696 32.7131 14.4806 32.6211 14.6277C32.6149 14.6376 32.6019 14.6409 32.5918 14.6351Z" fill="#022523"></path><path d="M44.1042 22.5475C44.4909 21.8874 44.6481 21.6249 44.7289 21.4949C44.8782 21.2278 44.4915 21.8877 44.1042 22.5475Z" fill="#022523"></path><path d="M27.8474 10.9505C24.3756 12.228 21.1895 14.1769 18.4709 16.6858C15.7523 19.1947 13.5545 22.2145 12.003 25.5727C10.4514 28.931 9.57656 32.562 9.42829 36.2584C9.28001 39.9547 9.86124 43.6441 11.1388 47.1159L12.3892 46.6557C11.1721 43.3482 10.6183 39.8333 10.7596 36.3118C10.9009 32.7902 11.7344 29.331 13.2125 26.1315C14.6907 22.9321 16.7845 20.0551 19.3745 17.6649C21.9645 15.2747 24.9999 13.418 28.3075 12.2009L27.8474 10.9505Z" fill="#022523"></path><path d="M64.0117 27.6594C65.3872 31.3974 65.9544 35.3846 65.6759 39.3579C65.3973 43.3312 64.2794 47.2002 62.3957 50.7097C60.5121 54.2192 57.9057 57.2894 54.7484 59.7176C51.5912 62.1459 47.9549 63.877 44.0795 64.7967L43.7524 63.4186C47.433 62.5451 50.8864 60.9011 53.885 58.5949C56.8835 56.2888 59.3589 53.373 61.1478 50.0399C62.9367 46.7069 63.9984 43.0324 64.263 39.2589C64.5275 35.4853 63.9888 31.6986 62.6825 28.1486L64.0117 27.6594Z" fill="#022523"></path><rect x="41.6609" y="24.2969" width="1.29298" height="1.29298" fill="#022523"></rect><rect x="39.7351" y="48.2866" width="1.29298" height="1.29298" fill="#022523"></rect><rect x="43.5867" y="26.4019" width="1.29298" height="1.29298" fill="#022523"></rect><rect x="43.5867" y="24.2969" width="1.29298" height="1.29298" fill="#022523"></rect><rect x="45.5125" y="26.4019" width="1.29298" height="1.29298" fill="#022523"></rect><rect x="45.5125" y="39.4932" width="1.29298" height="1.29298" fill="#022523"></rect><rect x="45.5125" y="37.3882" width="1.29298" height="1.29298" fill="#022523"></rect><rect x="45.5125" y="24.2969" width="1.29298" height="1.29298" fill="#022523"></rect><rect x="47.4382" y="26.4019" width="1.29298" height="1.29298" fill="#022523"></rect><rect x="47.4382" y="39.4932" width="1.29298" height="1.29298" fill="#022523"></rect><rect x="47.4382" y="14.4702" width="1.29298" height="1.29298" fill="#022523"></rect><rect x="28.5164" y="58.4971" width="1.29298" height="1.29298" transform="rotate(-180 28.5164 58.4971)" fill="#022523"></rect><rect x="47.4382" y="37.3882" width="1.29298" height="1.29298" fill="#022523"></rect><rect x="47.4382" y="12.3647" width="1.29298" height="1.29298" fill="#022523"></rect><rect x="28.5164" y="60.6025" width="1.29298" height="1.29298" transform="rotate(-180 28.5164 60.6025)" fill="#022523"></rect><rect x="49.3679" y="37.3882" width="1.29298" height="1.29298" fill="#022523"></rect><rect x="51.2898" y="37.3882" width="1.29298" height="1.29298" fill="#022523"></rect><rect x="51.2898" y="12.3647" width="1.29298" height="1.29298" fill="#022523"></rect><rect x="24.6648" y="60.6025" width="1.29298" height="1.29298" transform="rotate(-180 24.6648 60.6025)" fill="#022523"></rect><rect x="47.4382" y="35.207" width="1.29298" height="1.29298" fill="#022523"></rect><rect x="47.4382" y="10.1841" width="1.29298" height="1.29298" fill="#022523"></rect><rect x="28.5164" y="62.7832" width="1.29298" height="1.29298" transform="rotate(-180 28.5164 62.7832)" fill="#022523"></rect><rect x="49.3679" y="35.207" width="1.29298" height="1.29298" fill="#022523"></rect><rect x="51.2898" y="35.207" width="1.29298" height="1.29298" fill="#022523"></rect><rect x="51.2898" y="10.1841" width="1.29298" height="1.29298" fill="#022523"></rect><rect x="24.6648" y="62.7832" width="1.29298" height="1.29298" transform="rotate(-180 24.6648 62.7832)" fill="#022523"></rect><rect x="51.2898" y="12.3579" width="1.29298" height="1.29298" fill="#022523"></rect><rect x="24.6648" y="60.6094" width="1.29298" height="1.29298" transform="rotate(-180 24.6648 60.6094)" fill="#022523"></rect><rect x="51.2898" y="14.5317" width="1.29298" height="1.29298" fill="#022523"></rect><rect x="24.6648" y="58.4355" width="1.29298" height="1.29298" transform="rotate(-180 24.6648 58.4355)" fill="#022523"></rect><rect x="49.3679" y="39.5703" width="1.29298" height="1.29298" fill="#022523"></rect><rect x="49.3679" y="14.5469" width="1.29298" height="1.29298" fill="#022523"></rect><rect x="26.5906" y="58.4204" width="1.29298" height="1.29298" transform="rotate(-180 26.5906 58.4204)" fill="#022523"></rect><rect x="51.282" y="14.5469" width="1.29298" height="1.29298" fill="#022523"></rect><rect x="24.6765" y="58.4204" width="1.29298" height="1.29298" transform="rotate(-180 24.6765 58.4204)" fill="#022523"></rect><rect x="53.196" y="16.729" width="1.29298" height="1.29298" fill="#022523"></rect><rect x="22.7585" y="56.2383" width="1.29298" height="1.29298" transform="rotate(-180 22.7585 56.2383)" fill="#022523"></rect><rect x="55.1101" y="16.729" width="1.29298" height="1.29298" fill="#022523"></rect><rect x="20.8445" y="56.2383" width="1.29298" height="1.29298" transform="rotate(-180 20.8445 56.2383)" fill="#022523"></rect><rect x="57.0242" y="18.9097" width="1.29298" height="1.29298" fill="#022523"></rect><rect x="18.9385" y="54.0566" width="1.29298" height="1.29298" transform="rotate(-180 18.9385 54.0566)" fill="#022523"></rect><rect x="58.9382" y="18.9097" width="1.29298" height="1.29298" fill="#022523"></rect><rect x="17.0244" y="54.0566" width="1.29298" height="1.29298" transform="rotate(-180 17.0244 54.0566)" fill="#022523"></rect><rect x="47.4382" y="14.5469" width="1.29298" height="1.29298" fill="#022523"></rect><rect x="28.5164" y="58.4204" width="1.29298" height="1.29298" transform="rotate(-180 28.5164 58.4204)" fill="#022523"></rect><rect x="45.5125" y="14.5469" width="1.29298" height="1.29298" fill="#022523"></rect><rect x="30.4421" y="58.4204" width="1.29298" height="1.29298" transform="rotate(-180 30.4421 58.4204)" fill="#022523"></rect><rect x="43.5867" y="14.5469" width="1.29298" height="1.29298" fill="#022523"></rect><rect x="32.3679" y="58.4204" width="1.29298" height="1.29298" transform="rotate(-180 32.3679 58.4204)" fill="#022523"></rect><rect x="49.3679" y="37.3872" width="1.29298" height="1.29298" fill="#022523"></rect><rect x="49.3679" y="12.3638" width="1.29298" height="1.29298" fill="#022523"></rect><rect x="26.5906" y="60.6035" width="1.29298" height="1.29298" transform="rotate(-180 26.5906 60.6035)" fill="#022523"></rect><rect x="51.282" y="12.3638" width="1.29298" height="1.29298" fill="#022523"></rect><rect x="24.6765" y="60.6035" width="1.29298" height="1.29298" transform="rotate(-180 24.6765 60.6035)" fill="#022523"></rect><rect x="53.196" y="14.5459" width="1.29298" height="1.29298" fill="#022523"></rect><rect x="22.7585" y="58.4214" width="1.29298" height="1.29298" transform="rotate(-180 22.7585 58.4214)" fill="#022523"></rect><rect x="55.1101" y="14.5459" width="1.29298" height="1.29298" fill="#022523"></rect><rect x="20.8445" y="58.4214" width="1.29298" height="1.29298" transform="rotate(-180 20.8445 58.4214)" fill="#022523"></rect><rect x="57.0242" y="16.7266" width="1.29298" height="1.29298" fill="#022523"></rect><rect x="18.9385" y="56.2393" width="1.29298" height="1.29298" transform="rotate(-180 18.9385 56.2393)" fill="#022523"></rect><rect x="58.9382" y="16.7266" width="1.29298" height="1.29298" fill="#022523"></rect><rect x="17.0244" y="56.2393" width="1.29298" height="1.29298" transform="rotate(-180 17.0244 56.2393)" fill="#022523"></rect><rect x="47.4382" y="12.3638" width="1.29298" height="1.29298" fill="#022523"></rect><rect x="28.5164" y="60.6035" width="1.29298" height="1.29298" transform="rotate(-180 28.5164 60.6035)" fill="#022523"></rect><rect x="47.4382" y="10.1455" width="1.29298" height="1.29298" fill="#022523"></rect><rect x="28.5164" y="62.8218" width="1.29298" height="1.29298" transform="rotate(-180 28.5164 62.8218)" fill="#022523"></rect><rect x="45.5125" y="12.3638" width="1.29298" height="1.29298" fill="#022523"></rect><rect x="30.4421" y="60.6035" width="1.29298" height="1.29298" transform="rotate(-180 30.4421 60.6035)" fill="#022523"></rect><rect x="45.5125" y="10.1455" width="1.29298" height="1.29298" fill="#022523"></rect><rect x="30.4421" y="62.8218" width="1.29298" height="1.29298" transform="rotate(-180 30.4421 62.8218)" fill="#022523"></rect><rect x="43.5867" y="12.3638" width="1.29298" height="1.29298" fill="#022523"></rect><rect x="32.3679" y="60.6035" width="1.29298" height="1.29298" transform="rotate(-180 32.3679 60.6035)" fill="#022523"></rect><rect x="37.8054" y="12.3638" width="1.29298" height="1.29298" fill="#022523"></rect><rect x="38.1492" y="60.6035" width="1.29298" height="1.29298" transform="rotate(-180 38.1492 60.6035)" fill="#022523"></rect><rect x="49.3679" y="35.2061" width="1.29298" height="1.29298" fill="#022523"></rect><rect x="49.3679" y="10.1831" width="1.29298" height="1.29298" fill="#022523"></rect><rect x="26.5906" y="62.7842" width="1.29298" height="1.29298" transform="rotate(-180 26.5906 62.7842)" fill="#022523"></rect><rect x="51.282" y="10.1831" width="1.29298" height="1.29298" fill="#022523"></rect><rect x="24.6765" y="62.7842" width="1.29298" height="1.29298" transform="rotate(-180 24.6765 62.7842)" fill="#022523"></rect><rect x="53.196" y="12.3647" width="1.29298" height="1.29298" fill="#022523"></rect><rect x="22.7585" y="60.6025" width="1.29298" height="1.29298" transform="rotate(-180 22.7585 60.6025)" fill="#022523"></rect><rect x="55.1101" y="12.3647" width="1.29298" height="1.29298" fill="#022523"></rect><rect x="20.8445" y="60.6025" width="1.29298" height="1.29298" transform="rotate(-180 20.8445 60.6025)" fill="#022523"></rect><rect x="57.0242" y="14.5459" width="1.29298" height="1.29298" fill="#022523"></rect><rect x="18.9385" y="58.4199" width="1.29298" height="1.29298" transform="rotate(-180 18.9385 58.4199)" fill="#022523"></rect><rect x="55.1101" y="18.9097" width="1.29298" height="1.29298" fill="#022523"></rect><rect x="20.8445" y="54.0576" width="1.29298" height="1.29298" transform="rotate(-180 20.8445 54.0576)" fill="#022523"></rect><rect x="47.4382" y="10.1831" width="1.29298" height="1.29298" fill="#022523"></rect><rect x="28.5164" y="62.7842" width="1.29298" height="1.29298" transform="rotate(-180 28.5164 62.7842)" fill="#022523"></rect><rect x="45.5125" y="10.1831" width="1.29298" height="1.29298" fill="#022523"></rect><rect x="30.4421" y="62.7842" width="1.29298" height="1.29298" transform="rotate(-180 30.4421 62.7842)" fill="#022523"></rect><rect x="39.1023" y="10.1841" width="1.29298" height="1.29298" fill="#022523"></rect><rect x="36.8523" y="62.7832" width="1.29298" height="1.29298" transform="rotate(-180 36.8523 62.7832)" fill="#022523"></rect><rect x="39.7351" y="14.5469" width="1.29298" height="1.29298" fill="#022523"></rect><rect x="36.2195" y="58.4204" width="1.29298" height="1.29298" transform="rotate(-180 36.2195 58.4204)" fill="#022523"></rect><rect x="39.7351" y="12.3647" width="1.29298" height="1.29298" fill="#022523"></rect><rect x="36.2195" y="60.6025" width="1.29298" height="1.29298" transform="rotate(-180 36.2195 60.6025)" fill="#022523"></rect><rect x="37.8132" y="14.5469" width="1.29298" height="1.29298" fill="#022523"></rect><rect x="38.1414" y="58.4204" width="1.29298" height="1.29298" transform="rotate(-180 38.1414 58.4204)" fill="#022523"></rect><rect x="37.8054" y="28.6587" width="1.29298" height="1.29298" fill="#022523"></rect><rect x="37.8054" y="30.8394" width="1.29298" height="1.29298" fill="#022523"></rect><rect x="37.8054" y="33.0205" width="1.29298" height="1.29298" fill="#022523"></rect><rect x="37.8054" y="41.7441" width="1.29298" height="1.29298" fill="#022523"></rect><rect x="37.8054" y="43.9248" width="1.29298" height="1.29298" fill="#022523"></rect><rect x="37.8054" y="46.1055" width="1.29298" height="1.29298" fill="#022523"></rect><rect x="37.8054" y="48.2866" width="1.29298" height="1.29298" fill="#022523"></rect><rect x="35.8835" y="28.6587" width="1.29298" height="1.29298" fill="#022523"></rect><rect x="37.8054" y="28.6587" width="1.29298" height="1.29298" fill="#022523"></rect><rect x="39.7351" y="28.6587" width="1.29298" height="1.29298" fill="#022523"></rect><rect x="35.8835" y="30.8394" width="1.29298" height="1.29298" fill="#022523"></rect><rect x="35.8835" y="33.0205" width="1.29298" height="1.29298" fill="#022523"></rect><rect x="35.8835" y="35.2012" width="1.29298" height="1.29298" fill="#022523"></rect><rect x="35.8835" y="41.7441" width="1.29298" height="1.29298" fill="#022523"></rect><rect x="35.8835" y="43.9248" width="1.29298" height="1.29298" fill="#022523"></rect><rect x="35.8835" y="46.1055" width="1.29298" height="1.29298" fill="#022523"></rect><rect x="35.8835" y="48.2866" width="1.29298" height="1.29298" fill="#022523"></rect><rect x="35.8835" y="24.2969" width="1.29298" height="1.29298" fill="#022523"></rect><rect x="33.9539" y="28.6587" width="1.29298" height="1.29298" fill="#022523"></rect><rect x="33.9539" y="30.8394" width="1.29298" height="1.29298" fill="#022523"></rect><rect x="33.9539" y="33.0205" width="1.29298" height="1.29298" fill="#022523"></rect><rect x="33.9539" y="35.2012" width="1.29298" height="1.29298" fill="#022523"></rect><rect x="33.9539" y="37.3823" width="1.29298" height="1.29298" fill="#022523"></rect><rect x="33.9539" y="39.563" width="1.29298" height="1.29298" fill="#022523"></rect><rect x="33.9539" y="41.7441" width="1.29298" height="1.29298" fill="#022523"></rect><rect x="33.9539" y="43.9248" width="1.29298" height="1.29298" fill="#022523"></rect><rect x="33.9539" y="46.1055" width="1.29298" height="1.29298" fill="#022523"></rect><rect x="33.9539" y="26.4775" width="1.29298" height="1.29298" fill="#022523"></rect><rect x="33.9539" y="24.2969" width="1.29298" height="1.29298" fill="#022523"></rect><rect x="32.0281" y="28.6587" width="1.29298" height="1.29298" fill="#022523"></rect><rect x="32.0281" y="30.8394" width="1.29298" height="1.29298" fill="#022523"></rect><rect x="32.0281" y="33.0205" width="1.29298" height="1.29298" fill="#022523"></rect><rect x="32.0281" y="35.2012" width="1.29298" height="1.29298" fill="#022523"></rect><rect x="32.0281" y="37.3823" width="1.29298" height="1.29298" fill="#022523"></rect><rect x="32.0281" y="39.563" width="1.29298" height="1.29298" fill="#022523"></rect><rect x="32.0281" y="26.4775" width="1.29298" height="1.29298" fill="#022523"></rect><rect x="32.0281" y="24.2969" width="1.29298" height="1.29298" fill="#022523"></rect><rect x="30.1023" y="28.6587" width="1.29298" height="1.29298" fill="#022523"></rect><rect x="30.1023" y="30.8394" width="1.29298" height="1.29298" fill="#022523"></rect><rect x="30.1023" y="33.0205" width="1.29298" height="1.29298" fill="#022523"></rect><rect x="30.1023" y="35.2012" width="1.29298" height="1.29298" fill="#022523"></rect><rect x="30.1023" y="37.3823" width="1.29298" height="1.29298" fill="#022523"></rect><rect x="28.1335" y="28.6587" width="1.29298" height="1.29298" fill="#022523"></rect><rect x="26.1609" y="28.6587" width="1.29298" height="1.29298" fill="#022523"></rect><rect x="30.1023" y="26.4775" width="1.29298" height="1.29298" fill="#022523"></rect><rect x="30.1023" y="24.2969" width="1.29298" height="1.29298" fill="#022523"></rect><rect x="28.1726" y="28.6587" width="1.29298" height="1.29298" fill="#022523"></rect><rect x="28.1726" y="30.8394" width="1.29298" height="1.29298" fill="#022523"></rect><rect x="28.1726" y="33.0205" width="1.29298" height="1.29298" fill="#022523"></rect><rect x="28.1726" y="26.4775" width="1.29298" height="1.29298" fill="#022523"></rect></svg>